<svg xmlns="http://www.w3.org/2000/svg" viewBox="0 0 38.8 38.8"><defs><style>.cls-1{fill:#c6c6c6;}.cls-2{fill:#be1622;opacity:0.7;isolation:isolate;}.cls-3{fill:#406eb4;}.cls-4{fill:#515151;}.cls-5{fill:#fff;}.cls-6{fill:#6a6a6a;}</style></defs><title>ukjp_icon</title><g id="Layer_2" data-name="Layer 2"><g id="TOP_COVER" data-name="TOP COVER"><g id="Layer_3" data-name="Layer 3"><circle class="cls-1" cx="19.4" cy="19.4" r="19.4"/><circle class="cls-2" cx="19.4" cy="19.4" r="7.76"/><path class="cls-3" d="M12.91,37.75v-9l-6.69,5A19.23,19.23,0,0,0,12.91,37.75Z"/><path class="cls-3" d="M25.89,37.75a19.46,19.46,0,0,0,6.71-4l-6.71-5Z"/><path class="cls-4" d="M1,25.89c.23.63.48,1.25.77,1.86l2.54-1.86Z"/><path class="cls-4" d="M34.46,25.89,37,27.75a18.61,18.61,0,0,0,.76-1.86Z"/><path class="cls-5" d="M13.85,23.29H.32A19.64,19.64,0,0,0,1,25.89H4.33L1.79,27.75a18.62,18.62,0,0,0,1.81,3l6.7-4.9h2.59v1.34l-7.61,5.6a10.21,10.21,0,0,0,.9.85l6.73-4.93v9a19.09,19.09,0,0,0,2.59.72V25.32h0v-.38a1.65,1.65,0,0,0-1.65-1.65Z"/><path class="cls-5" d="M38.48,23.29H24.93A1.67,1.67,0,0,0,23.26,25V38.51a17.74,17.74,0,0,0,2.59-.72v-9l6.72,4.94A19.6,19.6,0,0,0,35,31l-6.91-5.08h4.39l4,2.86h0c.18-.34.36-.68.53-1l-2.54-1.86h3.29A18.75,18.75,0,0,0,38.48,23.29Z"/><path class="cls-6" d="M3.64,30.83a18.77,18.77,0,0,0,1.7,2h0L13,27.21V25.89H10.41Z"/><path class="cls-6" d="M28.14,25.89,35.05,31c.24-.32.47-.66.69-1l.09-.15c.22-.34.42-.68.63-1l-3.94-2.9Z"/><path class="cls-3" d="M25.89,1v9l6.69-4.93A19.57,19.57,0,0,0,25.89,1Z"/><path class="cls-3" d="M12.91,1a19.56,19.56,0,0,0-6.71,4L12.91,10Z"/><path class="cls-4" d="M37.75,12.91A17.69,17.69,0,0,0,37,11.05l-2.54,1.86Z"/><path class="cls-4" d="M4.34,12.91,1.8,11c-.29.61-.54,1.23-.77,1.87Z"/><path class="cls-5" d="M24.94,15.5H38.47a17.78,17.78,0,0,0-.73-2.59H34.46L37,11.05A20,20,0,0,0,35.18,8l-6.7,4.91H25.89V11.58h0L33.5,6c-.29-.31-.59-.61-.91-.9L25.9,10V1A19.37,19.37,0,0,0,23.29.32V13.48h0v.36a1.65,1.65,0,0,0,1.65,1.65h0Z"/><path class="cls-5" d="M.32,15.5H13.85a1.65,1.65,0,0,0,1.65-1.65V.32A19.09,19.09,0,0,0,12.91,1v9L6.2,5.07A19.91,19.91,0,0,0,3.75,7.81l6.92,5.07H6.27L2.34,10h0l-.53,1,2.54,1.87H1A19.09,19.09,0,0,0,.32,15.5Z"/><path class="cls-6" d="M35.16,8a18.88,18.88,0,0,0-1.7-2h0l-7.61,5.6h0v1.32h2.54Z"/><path class="cls-6" d="M10.66,12.91,3.75,7.83c-.24.33-.47.66-.69,1L3,9c-.21.34-.42.68-.62,1l3.93,2.9Z"/></g></g></g></svg>